<?xml version="1.0" standalone="no"?>
<!DOCTYPE svg PUBLIC "-//W3C//DTD SVG 20010904//EN"
 "http://www.w3.org/TR/2001/REC-SVG-20010904/DTD/svg10.dtd">
<svg version="1.0" xmlns="http://www.w3.org/2000/svg"
 width="128.000000pt" height="128.000000pt" viewBox="0 0 128.000000 128.000000"
 preserveAspectRatio="xMidYMid meet">
<metadata>
Created by potrace 1.11, written by Peter Selinger 2001-2013
</metadata>
<g transform="translate(0.000000,128.000000) scale(0.100000,-0.100000)"
fill="#000000" stroke="none">
<path d="M732 1028 c-16 -29 -39 -69 -50 -88 -10 -19 -59 -102 -107 -185 -49
-82 -98 -168 -111 -190 -56 -101 -197 -341 -206 -352 -6 -7 -9 -14 -7 -14 14
-5 1029 -3 1029 1 0 4 -4 10 -9 15 -8 9 -119 199 -176 300 -12 22 -38 67 -57
100 -19 33 -86 148 -148 255 -62 107 -116 199 -120 203 -4 5 -21 -15 -38 -45z"/>
<path d="M323 754 c-28 -49 -112 -194 -186 -321 -74 -128 -132 -234 -129 -234
37 -7 147 -2 158 6 7 5 76 120 153 253 l140 244 -33 51 c-18 29 -37 60 -43 71
-9 16 -17 7 -60 -70z"/>
</g>
</svg>
